<svg id="visual" viewBox="0 0 900 600" width="900" height="600" xmlns="http://www.w3.org/2000/svg" xmlns:xlink="http://www.w3.org/1999/xlink" version="1.1"><path d="M0 25L11.5 34C23 43 46 61 69 72C92 83 115 87 138.2 78C161.3 69 184.7 47 207.8 42C231 37 254 49 277 60C300 71 323 81 346 85C369 89 392 87 415.2 86C438.3 85 461.7 85 484.8 86C508 87 531 89 554 90C577 91 600 91 623 82C646 73 669 55 692.2 45C715.3 35 738.7 33 761.8 36C785 39 808 47 831 49C854 51 877 47 888.5 45L900 43L900 0L888.5 0C877 0 854 0 831 0C808 0 785 0 761.8 0C738.7 0 715.3 0 692.2 0C669 0 646 0 623 0C600 0 577 0 554 0C531 0 508 0 484.8 0C461.7 0 438.3 0 415.2 0C392 0 369 0 346 0C323 0 300 0 277 0C254 0 231 0 207.8 0C184.7 0 161.3 0 138.2 0C115 0 92 0 69 0C46 0 23 0 11.5 0L0 0Z" fill="#45a8b4"></path><path d="M0 187L11.5 211C23 235 46 283 69 297C92 311 115 291 138.2 283C161.3 275 184.7 279 207.8 261C231 243 254 203 277 198C300 193 323 223 346 241C369 259 392 265 415.2 255C438.3 245 461.7 219 484.8 203C508 187 531 181 554 177C577 173 600 171 623 179C646 187 669 205 692.2 218C715.3 231 738.7 239 761.8 235C785 231 808 215 831 221C854 227 877 255 888.5 269L900 283L900 41L888.5 43C877 45 854 49 831 47C808 45 785 37 761.8 34C738.7 31 715.3 33 692.2 43C669 53 646 71 623 80C600 89 577 89 554 88C531 87 508 85 484.8 84C461.7 83 438.3 83 415.2 84C392 85 369 87 346 83C323 79 300 69 277 58C254 47 231 35 207.8 40C184.7 45 161.3 67 138.2 76C115 85 92 81 69 70C46 59 23 41 11.5 32L0 23Z" fill="#53b4bf"></path><path d="M0 271L11.5 290C23 309 46 347 69 364C92 381 115 377 138.2 371C161.3 365 184.7 357 207.8 339C231 321 254 293 277 287C300 281 323 297 346 314C369 331 392 349 415.2 349C438.3 349 461.7 331 484.8 305C508 279 531 245 554 226C577 207 600 203 623 214C646 225 669 251 692.2 266C715.3 281 738.7 285 761.8 278C785 271 808 253 831 259C854 265 877 295 888.5 310L900 325L900 281L888.5 267C877 253 854 225 831 219C808 213 785 229 761.8 233C738.7 237 715.3 229 692.2 216C669 203 646 185 623 177C600 169 577 171 554 175C531 179 508 185 484.8 201C461.7 217 438.3 243 415.2 253C392 263 369 257 346 239C323 221 300 191 277 196C254 201 231 241 207.8 259C184.7 277 161.3 273 138.2 281C115 289 92 309 69 295C46 281 23 233 11.5 209L0 185Z" fill="#60c0ca"></path><path d="M0 361L11.5 378C23 395 46 429 69 444C92 459 115 455 138.2 443C161.3 431 184.7 411 207.8 400C231 389 254 387 277 401C300 415 323 445 346 457C369 469 392 463 415.2 458C438.3 453 461.7 449 484.8 416C508 383 531 321 554 290C577 259 600 259 623 275C646 291 669 323 692.2 343C715.3 363 738.7 371 761.8 369C785 367 808 355 831 359C854 363 877 383 888.5 393L900 403L900 323L888.5 308C877 293 854 263 831 257C808 251 785 269 761.8 276C738.7 283 715.3 279 692.2 264C669 249 646 223 623 212C600 201 577 205 554 224C531 243 508 277 484.8 303C461.7 329 438.3 347 415.2 347C392 347 369 329 346 312C323 295 300 279 277 285C254 291 231 319 207.8 337C184.7 355 161.3 363 138.2 369C115 375 92 379 69 362C46 345 23 307 11.5 288L0 269Z" fill="#6cccd6"></path><path d="M0 469L11.5 476C23 483 46 497 69 508C92 519 115 527 138.2 516C161.3 505 184.7 475 207.8 466C231 457 254 469 277 479C300 489 323 497 346 502C369 507 392 509 415.2 506C438.3 503 461.7 495 484.8 468C508 441 531 395 554 369C577 343 600 337 623 352C646 367 669 403 692.2 424C715.3 445 738.7 451 761.8 441C785 431 808 405 831 406C854 407 877 435 888.5 449L900 463L900 401L888.5 391C877 381 854 361 831 357C808 353 785 365 761.8 367C738.7 369 715.3 361 692.2 341C669 321 646 289 623 273C600 257 577 257 554 288C531 319 508 381 484.8 414C461.7 447 438.3 451 415.2 456C392 461 369 467 346 455C323 443 300 413 277 399C254 385 231 387 207.8 398C184.7 409 161.3 429 138.2 441C115 453 92 457 69 442C46 427 23 393 11.5 376L0 359Z" fill="#79d8e1"></path><path d="M0 601L11.5 601C23 601 46 601 69 601C92 601 115 601 138.2 601C161.3 601 184.7 601 207.8 601C231 601 254 601 277 601C300 601 323 601 346 601C369 601 392 601 415.2 601C438.3 601 461.7 601 484.8 601C508 601 531 601 554 601C577 601 600 601 623 601C646 601 669 601 692.2 601C715.3 601 738.7 601 761.8 601C785 601 808 601 831 601C854 601 877 601 888.5 601L900 601L900 461L888.5 447C877 433 854 405 831 404C808 403 785 429 761.8 439C738.7 449 715.3 443 692.2 422C669 401 646 365 623 350C600 335 577 341 554 367C531 393 508 439 484.8 466C461.7 493 438.3 501 415.2 504C392 507 369 505 346 500C323 495 300 487 277 477C254 467 231 455 207.8 464C184.7 473 161.3 503 138.2 514C115 525 92 517 69 506C46 495 23 481 11.5 474L0 467Z" fill="#85e4ec"></path></svg>